<?xml version="1.0" standalone="no"?>
<!DOCTYPE svg PUBLIC "-//W3C//DTD SVG 20010904//EN"
 "http://www.w3.org/TR/2001/REC-SVG-20010904/DTD/svg10.dtd">
<svg version="1.0" xmlns="http://www.w3.org/2000/svg"
 width="558.000000pt" height="558.000000pt" viewBox="0 0 558.000000 558.000000"
 preserveAspectRatio="xMidYMid meet">
<metadata>
Created by potrace 1.14, written by Peter Selinger 2001-2017
</metadata>
<g transform="translate(0.000000,558.000000) scale(0.100000,-0.100000)"
fill="#000000" stroke="none">
<path d="M2767 4384 c-1 -1 -31 -4 -67 -8 -57 -5 -91 -10 -197 -32 -43 -9
-169 -57 -238 -92 -291 -145 -522 -396 -633 -686 -55 -143 -75 -230 -88 -386
-4 -41 -11 -77 -17 -79 -5 -2 -27 -19 -48 -38 -31 -28 -39 -43 -39 -70 0 -66
50 -123 110 -125 131 -4 171 167 52 221 -30 14 -32 17 -32 70 0 183 88 454
203 626 203 303 536 514 887 562 69 9 281 10 340 1 117 -18 200 -39 284 -73
273 -110 507 -309 650 -555 84 -144 146 -351 161 -535 l6 -80 -41 -19 c-51
-22 -74 -57 -73 -106 1 -66 55 -114 123 -112 40 1 68 18 90 55 37 59 17 129
-45 163 -24 13 -31 23 -31 48 -2 179 -68 418 -159 581 -209 373 -594 625
-1007 661 -73 6 -188 11 -191 8z"/>
<path d="M2771 4169 c-78 -47 -70 -170 13 -204 l33 -14 0 -405 1 -405 -27 -5
c-14 -3 -41 -8 -59 -11 -19 -3 -38 -7 -43 -8 -5 -1 -33 50 -63 113 l-53 115
23 28 c13 16 24 32 25 35 0 4 3 19 5 34 9 54 -40 115 -98 124 -88 15 -159 -77
-124 -160 18 -43 53 -66 102 -69 40 -2 43 -7 124 -193 l18 -40 -69 -42 -68
-41 -200 200 c-196 197 -199 201 -189 230 37 107 -85 196 -178 129 -28 -20
-44 -53 -46 -94 -3 -83 90 -139 172 -102 11 4 74 -53 214 -193 l199 -200 -37
-45 c-38 -47 -79 -129 -90 -181 -14 -69 -17 -123 -7 -129 14 -9 19 3 27 60 14
110 54 191 134 272 121 123 300 165 469 111 159 -51 288 -206 308 -369 3 -25
7 -52 8 -59 3 -21 25 -26 26 -7 1 9 2 22 2 29 5 67 -37 181 -98 266 l-38 53
199 199 199 199 47 -6 c67 -9 102 8 128 62 18 37 20 49 11 77 -34 101 -170
116 -217 25 -14 -28 -16 -76 -3 -113 2 -6 -86 -101 -197 -212 l-201 -202 -65
41 -65 41 52 115 53 116 42 2 c100 6 145 126 73 198 -65 65 -182 27 -197 -65
-4 -26 17 -84 38 -109 12 -13 7 -30 -36 -125 -27 -60 -54 -112 -60 -116 -5 -4
-26 -3 -46 2 -21 4 -49 10 -64 14 l-28 5 0 405 0 404 29 16 c77 39 93 116 39
179 -41 46 -97 55 -147 25z"/>
<path d="M1839 3715 c-56 -31 -57 -36 -57 -565 0 -267 1 -492 4 -501 3 -11 16
-15 44 -15 l40 0 1 326 c0 179 0 399 0 490 0 91 4 172 8 179 7 10 98 13 460
13 l451 1 0 43 0 44 -462 0 c-381 -1 -468 -3 -489 -15z"/>
<path d="M2879 3710 c-1 -11 -1 -27 -1 -35 0 -8 0 -19 1 -24 0 -5 200 -9 452
-9 247 0 453 -3 457 -7 9 -9 9 -1042 -1 -1051 -4 -4 -533 -9 -1177 -10 -1056
-3 -1172 -4 -1200 -19 -55 -28 -77 -123 -45 -185 33 -64 -64 -60 1475 -60
l1400 0 35 33 c39 36 48 74 33 139 -6 28 -20 51 -39 66 -27 22 -38 24 -152 24
-198 0 -179 5 -175 -44 l3 -43 132 0 c73 -1 134 -3 137 -6 11 -11 15 -55 7
-69 -9 -13 -178 -15 -1378 -16 -752 0 -1376 4 -1385 8 -21 10 -24 61 -5 75 7
6 459 10 1176 12 1268 2 1199 -1 1238 58 16 24 17 71 17 565 -1 524 -1 539
-21 566 -39 52 -35 52 -525 52 -451 0 -458 0 -459 -20z"/>
<path d="M2343 3023 c-15 -21 -31 -40 -34 -43 -32 -26 -99 -239 -99 -314 0
-28 29 -45 31 -18 6 129 59 281 124 356 25 30 33 56 16 56 -6 0 -23 -17 -38
-37z"/>
<path d="M3280 3041 c0 -4 20 -39 45 -76 51 -78 82 -163 91 -252 7 -63 18 -93
30 -81 19 19 -6 170 -42 258 -34 81 -124 192 -124 151z"/>
<path d="M2760 2947 c-58 -11 -146 -71 -182 -122 -32 -46 -62 -137 -54 -163 5
-16 28 -17 311 -17 298 0 305 0 306 20 2 40 -3 61 -26 110 -64 134 -204 202
-355 172z"/>
<path d="M2368 2123 c-16 -4 -18 -18 -18 -111 l0 -107 197 -197 198 -198 102
102 101 101 0 -199 c1 -109 1 -215 1 -234 l1 -35 90 0 c90 -1 90 -1 91 25 1
34 1 787 0 827 -1 27 -4 31 -23 28 -12 -3 -79 -62 -149 -132 -70 -71 -147
-148 -172 -172 l-45 -43 -177 176 c-97 97 -177 175 -178 175 -1 -1 -10 -3 -19
-6z"/>
<path d="M545 2110 c-2 -4 -4 -46 -3 -94 l1 -86 254 0 c139 0 253 -4 253 -9 0
-18 -88 -89 -126 -101 -25 -9 -97 -14 -207 -14 -140 -1 -168 -3 -172 -16 -2
-8 -4 -134 -3 -280 l0 -265 92 0 91 0 5 185 5 185 45 1 c25 1 70 3 100 5 l55
3 85 -140 c47 -77 99 -162 116 -190 l31 -50 101 1 c55 0 103 3 107 7 4 3 -2
19 -13 35 -11 15 -72 115 -137 221 l-118 194 40 41 c56 59 82 99 105 165 19
52 31 171 21 198 -5 14 -720 17 -728 4z"/>
<path d="M1725 2109 c-115 -24 -197 -69 -263 -144 -202 -230 -106 -592 183
-693 240 -84 498 54 561 300 11 43 15 87 11 141 -13 207 -191 386 -392 396
-27 2 -52 4 -55 5 -3 2 -23 -1 -45 -5z m171 -207 c46 -24 95 -74 120 -122 25
-51 24 -153 -4 -206 -46 -90 -114 -135 -212 -140 -191 -9 -317 179 -236 352
57 123 213 177 332 116z"/>
<path d="M3264 2105 c-2 -5 -2 -143 -1 -305 2 -278 3 -298 23 -340 80 -170
311 -256 508 -190 74 24 169 91 203 142 48 72 51 96 50 409 l-2 293 -92 1 -93
1 0 -250 c0 -284 -5 -311 -65 -372 -101 -100 -256 -72 -324 61 -20 37 -21 57
-21 300 l0 260 -91 0 c-55 1 -93 -3 -95 -10z"/>
<path d="M4590 2109 c-125 -10 -203 -44 -287 -127 -156 -155 -170 -392 -34
-571 40 -53 134 -117 208 -142 62 -21 88 -23 296 -24 l227 -1 0 278 0 278
-245 0 c-231 0 -245 -1 -237 -17 5 -10 25 -52 45 -93 l35 -76 98 1 c55 1 104
0 109 -2 6 -2 9 -39 7 -93 l-3 -90 -132 3 c-114 2 -138 5 -172 24 -153 83
-191 255 -82 379 74 84 92 89 332 91 116 1 217 2 226 2 14 1 16 15 16 91 0 59
-4 90 -11 91 -69 4 -330 3 -396 -2z"/>
<path d="M2350 1483 l0 -239 93 1 92 0 2 148 2 148 -78 77 c-42 42 -85 83 -94
91 -16 13 -17 -2 -17 -226z"/>
</g>
</svg>
